<svg xmlns="http://www.w3.org/2000/svg" xmlns:xlink="http://www.w3.org/1999/xlink" viewBox="0 0 79.63 70.6"><defs><style>.cls-1{fill:url(#Magenta);}.cls-2{fill:url(#Blue);}.cls-3{fill:url(#Orange_Yellow);}</style><linearGradient id="Magenta" x1="-11.25" y1="5.16" x2="70.97" y2="89.64" gradientUnits="userSpaceOnUse"><stop offset="0" stop-color="#d471ad"/><stop offset="0.5" stop-color="#c7158c"/><stop offset="1" stop-color="#9d248e"/></linearGradient><linearGradient id="Blue" x1="2009.7" y1="42.11" x2="2047.8" y2="42.11" gradientTransform="matrix(-1, 0, 0, 1, 2089.33, 0)" gradientUnits="userSpaceOnUse"><stop offset="0" stop-color="#2bc4f3"/><stop offset="0.5" stop-color="#00aeee"/><stop offset="1" stop-color="#0095da"/></linearGradient><linearGradient id="Orange_Yellow" x1="94.78" y1="12.67" x2="-19.97" y2="12.67" gradientUnits="userSpaceOnUse"><stop offset="0" stop-color="#fff33b"/><stop offset="0.04" stop-color="#fee72e"/><stop offset="0.12" stop-color="#fed51b"/><stop offset="0.2" stop-color="#fdca10"/><stop offset="0.28" stop-color="#fdc70c"/><stop offset="0.67" stop-color="#f3903f"/><stop offset="0.89" stop-color="#ed683c"/><stop offset="1" stop-color="#e93e3a"/></linearGradient></defs><title>Ativo 4</title><g id="Camada_2" data-name="Camada 2"><g id="Camada_1-2" data-name="Camada 1"><path class="cls-1" d="M30.28,70.6V42.91s-.4-6.35-4.13-8.83C21.43,31,0,18.63,0,18.63l9.4-5,19,11s10.93,5,10.93,17.46V65.78Z"/><path class="cls-2" d="M49.78,70.6V42.91s.42-6.64,3.85-8.83c4.76-3,26-15.45,26-15.45l-9.47-5-18.33,11a19.86,19.86,0,0,0-10.3,17.46V65.78Z"/><path class="cls-3" d="M70.78,0,45.9,15.18s-5.33,2.67-9.46.6C31.39,13.25,10.78,0,10.78,0V10.68l18,11.21S38.38,28.83,49.37,23c9.92-5.28,21.41-12.32,21.41-12.32Z"/></g></g></svg>